<?xml version="1.0" standalone="no"?>
<!DOCTYPE svg PUBLIC "-//W3C//DTD SVG 20010904//EN"
 "http://www.w3.org/TR/2001/REC-SVG-20010904/DTD/svg10.dtd">
<svg version="1.0" xmlns="http://www.w3.org/2000/svg"
 width="1378.000000pt" height="1378.000000pt" viewBox="0 0 1378.000000 1378.000000"
 preserveAspectRatio="xMidYMid meet">
<metadata>
Created by potrace 1.14, written by Peter Selinger 2001-2017
</metadata>
<g transform="translate(0.000000,1378.000000) scale(0.100000,-0.100000)"
fill="#000000" stroke="none">
<path d="M0 6890 l0 -6890 6890 0 6890 0 0 6890 0 6890 -6890 0 -6890 0 0
-6890z m4845 1528 c137 -96 343 -189 485 -219 64 -14 179 -12 197 3 25 20 15
86 -21 142 -19 30 -39 57 -45 60 -5 4 -17 21 -25 38 -9 17 -14 30 -11 27 3 -2
19 -17 37 -32 123 -106 275 -206 383 -252 104 -44 280 -92 344 -94 62 -1 119
16 132 40 14 27 5 76 -26 130 -55 101 -75 139 -75 143 0 3 37 -18 83 -46 132
-81 273 -145 372 -168 28 -6 66 -15 86 -20 20 -6 79 -14 131 -20 132 -13 188
5 188 63 0 29 -46 122 -80 162 -10 11 -25 33 -35 48 l-18 28 29 -13 c16 -6 34
-15 39 -19 31 -22 270 -124 362 -154 60 -20 122 -40 138 -45 17 -6 69 -15 116
-22 97 -13 138 -3 165 38 20 30 8 72 -56 198 -28 54 -49 100 -47 102 2 3 44
-34 93 -82 116 -112 311 -277 396 -334 20 -13 35 -26 34 -28 -2 -2 -57 4 -122
14 -277 38 -839 52 -1059 25 -236 -29 -393 -95 -493 -207 -48 -54 -122 -187
-122 -221 0 -38 -15 -47 -52 -32 -44 18 -262 18 -308 -1 -35 -14 -50 -5 -50
33 0 34 -74 167 -122 221 -100 112 -257 178 -493 207 -128 15 -553 17 -760 3
-174 -12 -452 -46 -490 -60 -20 -8 -19 5 6 96 12 41 23 87 26 101 l5 27 68
-39 c113 -66 201 -91 296 -87 68 2 87 7 123 31 23 15 47 39 54 53 10 23 7 34
-25 93 -47 87 -108 244 -108 279 0 8 39 -23 88 -69 48 -47 123 -110 167 -141z
m545 -459 c88 -10 130 -19 215 -47 135 -43 223 -140 265 -288 10 -38 27 -74
37 -82 23 -17 66 -9 142 24 41 19 80 27 146 31 93 5 101 4 246 -53 71 -28 92
-14 120 78 77 261 240 339 729 351 217 6 427 -11 560 -45 55 -15 140 -64 192
-114 49 -46 77 -100 88 -172 7 -38 17 -63 31 -74 27 -23 33 -23 63 5 21 18 29
42 47 135 l22 112 73 0 c64 0 74 -2 74 -17 1 -10 3 -81 6 -158 9 -233 -27
-476 -118 -800 -51 -185 -67 -238 -89 -295 -11 -30 -29 -80 -41 -110 -91 -249
-233 -504 -386 -694 -117 -144 -375 -369 -507 -441 -27 -15 -62 -36 -77 -47
-80 -56 -452 -191 -528 -191 -8 1 -42 -5 -75 -12 -114 -25 -232 -31 -550 -26
-66 1 -138 6 -160 11 -22 4 -71 14 -110 20 -224 38 -462 121 -620 216 -33 20
-87 52 -120 72 -186 110 -355 274 -524 507 -145 201 -268 444 -331 655 -12 41
-39 129 -60 195 -44 139 -88 314 -101 400 -14 93 -9 446 7 565 22 154 20 150
53 150 28 0 28 -1 50 -112 18 -93 26 -117 47 -135 32 -29 39 -29 69 2 18 17
25 35 25 62 0 111 138 254 280 291 181 46 561 61 810 31z m3535 -521 c-2 -132
-12 -167 -96 -346 -93 -197 -206 -329 -334 -388 -85 -40 -112 -28 -93 41 5 17
22 84 39 150 45 180 47 185 73 185 27 0 68 32 166 131 86 87 153 177 201 271
19 37 37 67 40 67 3 1 5 -50 4 -111z m-5351 -76 c26 -64 100 -184 159 -257 69
-85 217 -235 232 -235 20 0 37 -27 62 -97 l22 -64 -51 6 c-54 7 -123 45 -192
106 -71 62 -236 336 -280 465 -16 46 -16 51 1 86 10 21 20 38 23 38 3 0 14
-21 24 -48z m6299 -1069 c54 -72 109 -180 153 -300 23 -64 30 -93 21 -95 -6 0
-19 -2 -27 -2 -10 -1 -36 40 -72 112 -31 63 -69 129 -83 148 -52 68 -97 24
-61 -59 7 -18 30 -70 51 -117 20 -47 39 -90 42 -97 3 -7 -17 -16 -54 -23 -81
-17 -131 -44 -139 -77 -5 -19 -2 -30 12 -40 10 -7 23 -12 29 -10 11 5 124 31
225 53 36 7 76 13 90 13 14 -1 79 -1 145 -1 166 -1 157 0 335 -29 108 -18 240
-66 384 -139 85 -42 144 -66 154 -63 37 14 42 53 11 81 -25 24 -242 131 -326
162 l-63 22 98 92 c53 51 116 109 140 130 56 51 55 106 -3 106 -25 0 -177
-130 -266 -229 -62 -68 -80 -79 -106 -63 -35 22 347 447 424 473 99 32 178
-135 263 -561 42 -211 49 -264 34 -273 -24 -14 -15 -51 26 -102 22 -27 40 -56
40 -62 0 -7 4 -13 8 -13 11 0 76 -123 111 -213 28 -69 38 -112 71 -291 5 -27
7 -52 5 -57 -3 -4 -33 -10 -67 -14 -115 -13 -175 -54 -136 -93 14 -14 102 -15
166 -3 l42 8 0 -31 c0 -17 -3 -69 -7 -115 l-6 -83 -41 7 c-170 29 -206 25
-206 -21 0 -30 30 -45 141 -70 41 -9 77 -19 81 -23 9 -8 -43 -176 -58 -191 -8
-8 -33 -1 -85 23 -41 19 -82 37 -92 40 -23 9 -57 -9 -57 -29 0 -23 53 -69 121
-105 57 -31 75 -58 49 -74 -6 -4 -19 -23 -29 -43 -24 -47 -105 -148 -186 -232
-34 -36 -72 -84 -83 -107 -25 -48 -24 -51 37 -173 21 -41 45 -97 54 -125 56
-169 69 -219 82 -300 8 -49 20 -119 25 -155 22 -134 1 -598 -29 -665 -5 -11
-17 -69 -27 -130 -9 -60 -21 -118 -26 -127 -8 -17 -67 -18 -959 -18 -938 0
-950 0 -939 19 5 11 15 23 20 26 14 9 56 94 64 130 33 154 -42 306 -188 380
-39 20 -93 42 -121 49 -42 10 -50 16 -53 38 -2 20 4 30 32 48 154 94 205 343
101 486 -69 94 -205 180 -300 189 -14 1 -27 19 -44 59 l-25 58 29 57 c17 31
45 78 64 106 41 59 149 187 168 198 23 14 14 55 -33 150 -49 96 -114 257 -114
279 0 8 12 21 28 30 57 34 84 64 78 86 -10 29 -37 35 -80 17 -21 -9 -41 -13
-45 -10 -12 13 -29 178 -20 202 7 20 15 23 62 23 57 0 77 12 77 46 0 32 -22
45 -85 51 l-57 6 7 66 c12 123 10 121 86 88 48 -21 84 -5 84 38 0 27 -6 33
-63 60 -73 34 -72 24 -16 170 96 251 215 426 362 532 68 49 86 83 58 111 -13
14 -21 14 -46 5 -17 -6 -30 -9 -30 -6 0 10 121 207 161 263 22 30 58 82 81
115 55 80 161 208 199 239 48 41 71 34 122 -31z m-5014 -921 c57 -48 163 -120
216 -148 22 -11 76 -42 120 -68 44 -25 94 -50 110 -55 17 -5 68 -24 115 -41
47 -18 127 -43 179 -56 52 -13 96 -26 98 -28 10 -9 -30 -196 -41 -196 -6 0
-26 9 -44 20 -58 35 -112 22 -112 -27 0 -25 26 -44 141 -105 82 -43 168 -97
266 -166 89 -62 278 -182 288 -182 4 0 20 -11 37 -25 16 -14 35 -25 42 -25 13
0 71 41 187 129 36 28 94 68 130 90 35 21 88 54 116 72 29 19 84 52 122 74 39
22 76 50 83 63 11 21 10 26 -11 43 -28 22 -59 18 -113 -17 l-38 -24 0 139 c0
125 2 140 18 144 9 3 42 11 72 17 93 21 251 77 345 123 83 41 253 144 282 172
16 14 44 37 64 51 l36 25 74 -16 c139 -31 242 -77 399 -180 235 -153 364 -367
345 -573 -8 -91 -23 -134 -68 -204 -94 -145 -299 -282 -522 -348 -277 -82
-571 -120 -950 -121 -148 0 -195 -4 -212 -15 -28 -17 -30 -55 -5 -77 16 -15
44 -16 238 -11 231 5 522 26 614 45 274 54 440 106 571 177 l66 36 97 -74 c97
-74 192 -164 242 -230 84 -113 210 -327 276 -472 l18 -38 -32 -16 c-61 -32
-118 -109 -118 -163 0 -31 -2 -33 -27 -26 -16 4 -61 13 -102 21 -68 13 -76 13
-93 -2 -10 -10 -18 -21 -18 -26 0 -20 50 -57 91 -68 24 -6 73 -20 109 -31 l65
-20 0 -52 c0 -38 6 -61 22 -83 l22 -31 -86 -59 c-97 -66 -113 -85 -97 -111 31
-49 65 -43 157 32 67 55 67 55 76 32 20 -51 102 -97 174 -97 34 0 49 -29 22
-44 -10 -6 -38 -28 -62 -50 l-43 -39 -68 16 c-119 27 -129 28 -153 8 -22 -17
-22 -20 -7 -42 14 -22 50 -37 191 -79 45 -14 65 -43 46 -68 -8 -9 -14 -19 -16
-21 -1 -2 -35 -5 -76 -7 -138 -8 -202 -40 -163 -83 17 -19 31 -21 127 -21 107
0 108 0 128 -28 17 -25 18 -31 6 -48 -20 -29 -29 -89 -16 -112 8 -16 7 -21 -7
-24 -9 -2 -368 -3 -797 -1 -429 1 -1700 3 -2824 3 l-2044 2 7 181 c4 100 8
198 10 217 3 19 7 64 11 100 29 288 105 579 233 890 122 297 307 573 492 735
91 79 181 145 198 145 5 0 17 -9 27 -20 18 -20 52 -41 185 -112 110 -60 286
-115 460 -144 47 -7 96 -16 110 -19 14 -3 77 -10 140 -15 63 -6 133 -13 155
-15 22 -3 135 -8 250 -12 191 -5 212 -4 228 11 9 10 17 26 17 36 0 39 -36 47
-220 54 -437 15 -670 48 -920 127 -256 81 -433 206 -527 370 -61 107 -63 262
-3 378 80 158 209 278 456 424 104 62 301 144 348 146 11 1 40 -16 65 -37z
m971 -431 c16 -31 129 -88 307 -155 123 -46 342 -88 449 -87 58 1 62 0 66 -24
5 -26 7 -24 -127 -110 -33 -21 -78 -52 -100 -70 -22 -17 -63 -48 -92 -68 -51
-36 -53 -36 -87 -22 -20 8 -61 32 -93 54 -72 47 -199 132 -221 147 -10 6 -48
31 -86 55 -38 24 -73 47 -79 50 -8 6 2 83 29 222 7 32 19 35 34 8z m3078
-1769 c174 -66 255 -219 194 -363 -42 -98 -126 -148 -221 -134 -75 11 -80 23
-30 67 43 36 44 37 29 65 -14 25 -22 28 -72 31 -40 2 -61 8 -73 22 -17 19 -16
21 19 60 50 56 46 110 -9 110 -55 0 -59 54 -9 109 48 54 93 63 172 33z m219
-768 c148 -65 217 -212 155 -330 -54 -104 -115 -144 -222 -144 -63 0 -139 24
-154 48 -10 17 4 40 38 60 46 27 52 58 17 91 -16 14 -39 33 -52 43 l-24 16 43
39 c23 22 42 48 42 57 0 10 -13 31 -30 46 -16 15 -30 37 -30 47 0 20 23 45 50
56 27 11 107 -3 167 -29z"/>
<path d="M5255 7892 c-148 -33 -268 -131 -319 -262 -38 -95 -43 -151 -21 -236
44 -178 144 -278 317 -319 86 -20 144 -19 214 5 289 100 384 454 182 676 -90
98 -261 160 -373 136z m201 -128 c235 -111 244 -438 15 -567 -112 -63 -271
-43 -367 45 -84 77 -126 225 -94 324 27 82 97 163 170 197 93 43 187 43 276 1z"/>
<path d="M5274 7671 c-97 -44 -143 -164 -97 -256 37 -72 87 -105 163 -105 69
0 124 29 159 85 56 89 49 181 -18 234 -78 62 -137 74 -207 42z m106 -151 c23
-44 -29 -80 -64 -44 -20 19 -20 23 1 46 21 24 50 23 63 -2z"/>
<path d="M7038 7890 c-25 -4 -78 -25 -118 -45 -328 -173 -289 -643 64 -765 70
-24 128 -25 214 -5 173 41 273 141 317 319 22 85 17 141 -21 236 -70 180 -270
294 -456 260z m206 -125 c79 -35 148 -114 176 -199 32 -99 -10 -247 -94 -324
-96 -88 -255 -108 -367 -45 -186 105 -225 352 -77 501 97 98 237 124 362 67z"/>
<path d="M7022 7675 c-19 -8 -51 -29 -73 -46 -67 -53 -74 -145 -18 -234 63
-99 210 -117 285 -33 69 75 73 178 12 253 -55 66 -137 90 -206 60z m90 -152
c22 -20 22 -27 2 -47 -35 -36 -87 0 -64 44 13 24 37 26 62 3z"/>
<path d="M5920 7440 c-12 -12 -20 -33 -20 -55 0 -60 -45 -205 -99 -317 -83
-173 -243 -281 -481 -324 -203 -36 -421 -22 -555 36 -11 5 -40 17 -65 28 -96
40 -239 160 -284 237 -43 73 -78 168 -96 262 -19 98 -31 123 -59 123 -46 0
-53 -66 -22 -190 53 -209 154 -356 318 -462 91 -58 122 -72 233 -109 87 -28
110 -32 263 -36 135 -5 186 -2 255 11 141 28 202 46 287 86 152 73 295 244
346 415 12 38 25 84 30 100 18 55 23 183 9 200 -17 20 -36 19 -60 -5z"/>
<path d="M6450 7445 c-14 -17 -9 -145 9 -200 5 -16 18 -62 30 -100 51 -171
194 -342 346 -415 85 -40 146 -58 287 -86 69 -13 120 -16 255 -11 153 4 176 8
263 36 111 37 142 51 233 109 164 106 265 253 318 462 31 124 24 190 -22 190
-28 0 -40 -25 -59 -123 -18 -94 -53 -189 -96 -262 -45 -77 -188 -197 -284
-237 -25 -11 -54 -23 -65 -28 -134 -58 -352 -72 -555 -36 -238 43 -398 151
-481 324 -54 112 -99 257 -99 317 0 57 -51 95 -80 60z"/>
<path d="M6194 7442 c-30 -19 -36 -58 -36 -223 0 -93 -6 -226 -12 -295 l-11
-127 -43 -13 c-62 -18 -117 -59 -152 -114 -25 -39 -30 -57 -30 -107 0 -51 5
-66 30 -102 36 -49 101 -93 165 -111 39 -11 48 -10 70 4 48 31 24 86 -37 86
-12 0 -44 15 -71 33 -83 56 -85 130 -4 191 19 15 43 26 54 26 28 0 87 25 102
44 18 21 30 217 31 467 0 197 -2 217 -18 232 -21 19 -23 20 -38 9z"/>
<path d="M6120 6006 c-32 -31 -149 -86 -234 -110 -69 -21 -110 -26 -192 -26
-91 0 -107 -3 -124 -20 -24 -24 -25 -43 -4 -64 28 -29 254 -16 356 20 35 12
43 12 76 -5 20 -10 61 -26 90 -36 71 -23 165 -10 238 33 31 18 56 27 65 22 8
-4 64 -19 125 -34 145 -34 288 -37 328 -5 28 22 34 50 13 67 -7 6 -60 10 -122
10 -158 0 -320 43 -489 131 -65 34 -104 39 -126 17z"/>
<path d="M6342 5715 c-44 -37 -105 -55 -182 -55 -59 0 -78 5 -134 35 -71 37
-95 42 -114 23 -22 -22 -13 -55 24 -83 63 -48 123 -65 232 -65 128 0 165 11
226 70 47 45 49 50 38 74 -15 34 -51 34 -90 1z"/>
<path d="M9883 5710 c-71 -17 -104 -60 -68 -90 20 -17 164 5 183 28 41 52 -20
85 -115 62z"/>
<path d="M10622 5658 c-33 -33 4 -88 58 -88 14 0 38 -7 55 -16 35 -18 70 -11
85 16 14 27 -1 54 -37 67 -101 36 -141 41 -161 21z"/>
<path d="M9650 5307 c-56 -20 -133 -76 -158 -113 -110 -167 -71 -366 90 -470
38 -24 152 -57 162 -46 3 3 6 -17 6 -44 0 -55 24 -103 64 -129 35 -23 134 -48
163 -40 16 4 34 -2 56 -18 33 -25 88 -47 117 -47 10 0 35 12 56 26 37 26 40
26 104 14 127 -24 233 31 270 140 18 54 20 55 58 57 130 6 242 84 291 202 44
105 13 266 -66 345 -14 14 -51 40 -81 58 -46 26 -69 32 -131 36 -102 5 -178
-22 -241 -87 -71 -74 -94 -130 -95 -232 0 -75 3 -92 30 -144 21 -42 48 -74 90
-107 33 -27 62 -55 63 -64 6 -26 -28 -83 -58 -99 -40 -21 -113 -19 -158 4 -20
11 -55 38 -77 60 -45 48 -72 51 -106 15 -75 -80 -236 -86 -255 -9 -9 35 16 82
50 97 53 22 131 108 155 173 61 160 -26 356 -182 414 -66 24 -162 27 -217 8z
m200 -102 c172 -87 171 -323 -2 -411 -88 -45 -183 -28 -258 44 -51 50 -70 95
-70 168 0 163 183 273 330 199z m879 -40 c108 -54 153 -160 120 -280 -14 -51
-93 -130 -146 -144 -142 -40 -283 49 -300 187 -21 182 166 319 326 237z"/>
<path d="M9675 5098 c-31 -29 -38 -42 -42 -84 -10 -100 66 -156 162 -120 58
23 79 60 72 129 -6 66 -36 95 -104 103 -47 6 -53 4 -88 -28z m89 -64 c17 -6
23 -54 7 -54 -5 0 -16 -3 -24 -6 -20 -7 -33 32 -17 51 14 17 13 17 34 9z"/>
<path d="M10584 5083 c-38 -7 -66 -48 -72 -101 -6 -68 15 -105 73 -128 96 -36
172 20 162 120 -4 41 -11 55 -41 83 -35 33 -61 38 -122 26z m66 -98 c16 -19 3
-58 -17 -51 -8 3 -19 6 -24 6 -14 0 -11 48 4 53 20 9 24 8 37 -8z"/>
<path d="M10140 4933 c-60 -23 -78 -87 -35 -121 15 -12 25 -30 25 -44 0 -49
68 -79 90 -39 5 11 10 30 10 44 0 15 9 28 25 37 46 24 45 88 -1 108 -31 15
-94 23 -114 15z"/>
<path d="M10001 4721 c-15 -10 -8 -41 9 -41 15 0 25 29 14 40 -5 5 -15 5 -23
1z"/>
<path d="M10254 4699 c-9 -15 12 -33 30 -26 9 4 16 13 16 22 0 17 -35 21 -46
4z"/>
<path d="M9910 4670 c0 -11 7 -20 15 -20 8 0 15 9 15 20 0 11 -7 20 -15 20 -8
0 -15 -9 -15 -20z"/>
<path d="M10384 4669 c-8 -14 11 -33 25 -25 6 4 11 14 11 22 0 16 -26 19 -36
3z"/>
<path d="M9970 4616 c0 -10 9 -16 21 -16 24 0 21 23 -4 28 -10 2 -17 -3 -17
-12z"/>
<path d="M10310 4615 c-10 -12 -9 -16 5 -21 23 -9 40 10 22 25 -11 9 -17 8
-27 -4z"/>
<path d="M9946 4384 c-23 -23 -20 -32 22 -74 43 -43 92 -60 175 -60 65 0 108
15 155 54 39 33 40 50 7 72 -25 16 -28 16 -81 -11 -47 -24 -61 -27 -105 -21
-29 4 -68 18 -88 32 -41 28 -63 30 -85 8z"/>
<path d="M5822 3807 c-27 -33 -36 -71 -86 -367 -47 -276 -65 -403 -79 -543
-11 -114 -10 -118 11 -139 18 -18 25 -20 46 -10 29 13 29 13 50 187 14 112 34
261 51 370 2 17 13 82 24 145 40 232 52 342 40 356 -14 18 -43 18 -57 1z"/>
<path d="M6479 3738 c-11 -20 -8 -86 7 -148 3 -14 14 -97 25 -185 33 -272 70
-538 80 -577 12 -47 50 -62 81 -31 20 20 20 20 -6 194 -14 96 -28 201 -31 234
-3 33 -8 74 -10 90 -3 17 -7 53 -10 80 -16 158 -43 303 -67 348 -12 24 -55 22
-69 -5z"/>
<path d="M6684 2638 c-32 -29 -38 -30 -57 -18 -66 41 -76 45 -94 34 -25 -16
-19 -49 16 -91 l30 -36 -26 -49 c-24 -46 -24 -49 -9 -73 23 -35 48 -31 85 11
l32 36 44 -41 c46 -42 67 -45 93 -13 20 25 14 40 -33 91 -30 32 -43 54 -39 65
3 9 9 16 13 16 5 0 16 15 26 34 16 29 17 37 6 50 -20 24 -47 19 -87 -16z"/>
<path d="M5565 2620 c-17 -18 -16 -21 9 -64 20 -34 23 -47 14 -53 -7 -4 -32
-30 -56 -56 -35 -38 -43 -54 -40 -79 2 -22 10 -33 27 -40 22 -8 31 -1 83 52
63 65 64 65 101 8 19 -30 54 -37 75 -16 22 22 14 71 -19 110 l-30 37 21 29
c41 55 4 103 -49 64 l-30 -22 -37 25 c-44 30 -46 30 -69 5z"/>
</g>
</svg>
